<svg xmlns:mydata="http://www.w3.org/2000/svg" mydata:companyname="la vie en noir" mydata:companytagline="From frontend finesse to backend brilliance" version="1.1" xmlns="http://www.w3.org/2000/svg" xmlns:xlink="http://www.w3.org/1999/xlink" viewBox="0 50 550 420"><g fill="#c8c8c8" fill-rule="none" stroke="none" stroke-width="1" stroke-linecap="butt" stroke-linejoin="miter" stroke-miterlimit="10" stroke-dasharray="" stroke-dashoffset="0" font-family="none" font-weight="none" font-size="none" text-anchor="none" style="mix-blend-mode: normal"><g><g fill-rule="nonzero"><path d="M106.48299,346.41469h-4.97683v8.50806h1.51181v-3.61951h2.93534v-1.37939h-2.93534v-2.11874h3.46502z" fill="#c8c8c8"></path><path d="M115.4582,354.91172l-1.86493,-3.23328c1.02626,-0.33105 1.46767,-1.01523 1.46767,-2.27323v-0.4414c0,-1.79872 -0.96005,-2.54911 -3.01258,-2.54911h-2.14081v8.49703h1.52284v-2.99051h0.56279l1.68837,2.99051zM111.41936,350.51975v-2.7036h0.65107c1.18076,0 1.39042,0.41933 1.39042,1.2249v0.28691c0,0.80556 -0.30898,1.19179 -1.41249,1.19179z" fill="#c8c8c8"></path><path d="M121.47601,354.98896c2.01942,0 2.90223,-0.78349 2.90223,-2.53807v-3.59744c0,-1.79872 -0.8497,-2.53807 -2.90223,-2.53807c-2.05253,0 -2.83602,0.73935 -2.83602,2.53807v3.59744c0,1.75458 0.8166,2.53807 2.83602,2.53807zM121.47601,353.64268c-1.10351,0 -1.31318,-0.46347 -1.31318,-1.26904v-3.44295c0,-0.77246 0.20967,-1.26904 1.31318,-1.26904c1.18076,0 1.37939,0.49658 1.37939,1.26904v3.44295c0,0.80556 -0.27588,1.26904 -1.37939,1.26904z" fill="#c8c8c8"></path><path d="M131.51059,352.90333l1.68837,-3.42088l-0.17656,2.42772v3.00155h1.52284v-8.49703h-1.46767l-1.74355,3.76297l-1.73251,-3.76297h-1.46767v8.49703h1.52284v-3.00155l-0.17656,-2.42772l1.68837,3.42088z" fill="#c8c8c8"></path><path d="M148.41269,346.41469h-4.97683v8.50806h1.51181v-3.61951h2.93534v-1.37939h-2.93534v-2.11874h3.46502z" fill="#c8c8c8"></path><path d="M157.3879,354.91172l-1.86493,-3.23328c1.02626,-0.33105 1.46767,-1.01523 1.46767,-2.27323v-0.4414c0,-1.79872 -0.96005,-2.54911 -3.01258,-2.54911h-2.14081v8.49703h1.52284v-2.99051h0.56279l1.68837,2.99051zM153.34906,350.51975v-2.7036h0.65107c1.18076,0 1.39042,0.41933 1.39042,1.2249v0.28691c0,0.80556 -0.30898,1.19179 -1.41249,1.19179z" fill="#c8c8c8"></path><path d="M163.40571,354.98896c2.01942,0 2.90223,-0.78349 2.90223,-2.53807v-3.59744c0,-1.79872 -0.8497,-2.53807 -2.90223,-2.53807c-2.05253,0 -2.83602,0.73935 -2.83602,2.53807v3.59744c0,1.75458 0.8166,2.53807 2.83602,2.53807zM163.40571,353.64268c-1.10351,0 -1.31318,-0.46347 -1.31318,-1.26904v-3.44295c0,-0.77246 0.20967,-1.26904 1.31318,-1.26904c1.18076,0 1.37939,0.49658 1.37939,1.26904v3.44295c0,0.80556 -0.27588,1.26904 -1.37939,1.26904z" fill="#c8c8c8"></path><path d="M175.40454,346.42573h-1.51181v2.00839l0.16553,3.58641l-2.49393,-5.5948h-1.51181v8.48599h1.51181v-2.16288l-0.13242,-3.22225l2.49393,5.38513h1.4787z" fill="#c8c8c8"></path><path d="M183.58523,346.4478h-5.03201v1.35732h1.76562v7.1066h1.51181v-7.1066h1.75458z" fill="#c8c8c8"></path><path d="M186.74495,346.41469v8.50806h5.04304v-1.39042h-3.5202v-2.24013h2.86913v-1.36835h-2.86913v-2.18495h3.36571v-1.32421z" fill="#c8c8c8"></path><path d="M200.60871,346.42573h-1.51181v2.00839l0.16553,3.58641l-2.49393,-5.5948h-1.51181v8.48599h1.51181v-2.16288l-0.13242,-3.22225l2.49393,5.38513h1.4787z" fill="#c8c8c8"></path><path d="M204.45261,346.41469v8.49703h2.79188c2.01942,0 2.90223,-0.73935 2.90223,-2.49393v-3.46502c0,-1.79872 -0.8497,-2.53807 -2.90223,-2.53807zM205.96441,353.53233v-5.72722h1.30214c1.18076,0 1.35732,0.41933 1.35732,1.2249v3.31053c0,0.80556 -0.27588,1.19179 -1.37939,1.19179z" fill="#c8c8c8"></path><path d="M223.8376,346.41469h-4.97683v8.50806h1.51181v-3.61951h2.93534v-1.37939h-2.93534v-2.11874h3.46502z" fill="#c8c8c8"></path><path d="M228.79604,346.42573h-1.53388v8.49703h1.53388z" fill="#c8c8c8"></path><path d="M237.98092,346.42573h-1.51181v2.00839l0.16553,3.58641l-2.49393,-5.5948h-1.51181v8.48599h1.51181v-2.16288l-0.13242,-3.22225l2.49393,5.38513h1.4787z" fill="#c8c8c8"></path><path d="M241.81378,346.41469v8.50806h5.04304v-1.39042h-3.5202v-2.24013h2.86913v-1.36835h-2.86913v-2.18495h3.36571v-1.32421z" fill="#c8c8c8"></path><path d="M253.93399,348.63275h1.53388c-0.14346,-1.69941 -1.15869,-2.2622 -2.69256,-2.2622c-1.74355,0 -2.71463,0.82763 -2.71463,2.41669c0,1.75458 1.01523,2.22909 1.97528,2.35048c0.90488,0.12139 2.09667,0.12139 2.09667,1.12558c0,0.96005 -0.41933,1.34628 -1.33525,1.34628c-0.97109,0 -1.258,-0.35312 -1.29111,-1.00419h-1.53388c0,1.36835 0.67314,2.39462 2.79188,2.39462c2.04149,0 2.8912,-0.82763 2.8912,-2.79188c0,-1.69941 -0.93798,-2.09667 -1.92011,-2.25116c-1.29111,-0.19863 -2.14081,-0.11035 -2.14081,-1.18076c0,-0.80556 0.34209,-1.0704 1.18076,-1.0704c0.73935,0 1.11455,0.20967 1.15869,0.92695z" fill="#c8c8c8"></path><path d="M262.89817,348.63275h1.53388c-0.14346,-1.69941 -1.15869,-2.2622 -2.69256,-2.2622c-1.74355,0 -2.71463,0.82763 -2.71463,2.41669c0,1.75458 1.01523,2.22909 1.97528,2.35048c0.90488,0.12139 2.09667,0.12139 2.09667,1.12558c0,0.96005 -0.41933,1.34628 -1.33525,1.34628c-0.97109,0 -1.258,-0.35312 -1.29111,-1.00419h-1.53388c0,1.36835 0.67314,2.39462 2.79188,2.39462c2.04149,0 2.8912,-0.82763 2.8912,-2.79188c0,-1.69941 -0.93798,-2.09667 -1.92011,-2.25116c-1.29111,-0.19863 -2.14081,-0.11035 -2.14081,-1.18076c0,-0.80556 0.34209,-1.0704 1.18076,-1.0704c0.73935,0 1.11455,0.20967 1.15869,0.92695z" fill="#c8c8c8"></path><path d="M268.18766,346.41469v8.50806h5.04304v-1.39042h-3.5202v-2.24013h2.86913v-1.36835h-2.86913v-2.18495h3.36571v-1.32421z" fill="#c8c8c8"></path><path d="M285.79601,346.4478h-5.03201v1.35732h1.76562v7.1066h1.51181v-7.1066h1.75458z" fill="#c8c8c8"></path><path d="M291.39448,354.98896c2.01942,0 2.90223,-0.78349 2.90223,-2.53807v-3.59744c0,-1.79872 -0.8497,-2.53807 -2.90223,-2.53807c-2.05253,0 -2.83602,0.73935 -2.83602,2.53807v3.59744c0,1.75458 0.8166,2.53807 2.83602,2.53807zM291.39448,353.64268c-1.10351,0 -1.31318,-0.46347 -1.31318,-1.26904v-3.44295c0,-0.77246 0.20967,-1.26904 1.31318,-1.26904c1.18076,0 1.37939,0.49658 1.37939,1.26904v3.44295c0,0.80556 -0.27588,1.26904 -1.37939,1.26904z" fill="#c8c8c8"></path><path d="M303.01076,354.91172h2.80292c2.05253,0 3.01258,-0.72832 3.01258,-2.63739c0,-1.16972 -0.67314,-1.93114 -1.55595,-2.11874c0.67314,-0.45244 0.77246,-0.97109 0.77246,-1.48974c0,-1.32421 -0.97109,-2.25116 -2.50497,-2.25116h-2.52704zM304.52257,351.08254h1.29111c1.10351,0 1.37939,0.38623 1.37939,1.2249c0,0.80556 -0.17656,1.2249 -1.35732,1.2249h-1.31318zM305.5378,347.71683c0.75039,0 0.93798,0.54072 0.93798,0.97109c0,0.54072 -0.29795,0.99316 -0.92695,0.99316h-1.01523v-1.96425z" fill="#c8c8c8"></path><path d="M315.30754,346.42573h-1.51181l-2.35048,8.48599h1.56698l0.4414,-1.50077h2.17391l0.43037,1.50077h1.56698zM313.82884,351.92121l0.70625,-3.145l0.70625,3.145z" fill="#c8c8c8"></path><path d="M324.88969,352.28537c0,0.83867 -0.27588,1.30214 -1.37939,1.30214c-1.10351,0 -1.31318,-0.46347 -1.31318,-1.26904v-3.29949c0,-0.80556 0.20967,-1.26904 1.31318,-1.26904c1.18076,0 1.37939,0.46347 1.37939,1.29111h1.52284c0,-1.887 -0.8497,-2.63739 -2.90223,-2.63739c-2.05253,0 -2.83602,0.73935 -2.83602,2.53807v3.45399c0,1.75458 0.8166,2.53807 2.83602,2.53807c2.01942,0 2.90223,-0.78349 2.90223,-2.64842z" fill="#c8c8c8"></path><path d="M336.10503,354.91172l-3.02362,-4.24851l2.76981,-4.24851h-1.77665l-2.22909,3.57537h-0.4083v-3.57537h-1.52284v8.49703h1.51181v-3.40985h0.43037l2.39462,3.40985z" fill="#c8c8c8"></path><path d="M339.2206,346.41469v8.50806h5.04304v-1.39042h-3.5202v-2.24013h2.86913v-1.36835h-2.86913v-2.18495h3.36571v-1.32421z" fill="#c8c8c8"></path><path d="M353.08437,346.42573h-1.51181v2.00839l0.16553,3.58641l-2.49393,-5.5948h-1.51181v8.48599h1.51181v-2.16288l-0.13242,-3.22225l2.49393,5.38513h1.4787z" fill="#c8c8c8"></path><path d="M356.92826,346.41469v8.49703h2.79188c2.01942,0 2.90223,-0.73935 2.90223,-2.49393v-3.46502c0,-1.79872 -0.8497,-2.53807 -2.90223,-2.53807zM358.44007,353.53233v-5.72722h1.30214c1.18076,0 1.35732,0.41933 1.35732,1.2249v3.31053c0,0.80556 -0.27588,1.19179 -1.37939,1.19179z" fill="#c8c8c8"></path><path d="M371.23711,354.91172h2.80292c2.05253,0 3.01258,-0.72832 3.01258,-2.63739c0,-1.16972 -0.67314,-1.93114 -1.55595,-2.11874c0.67314,-0.45244 0.77246,-0.97109 0.77246,-1.48974c0,-1.32421 -0.97109,-2.25116 -2.50497,-2.25116h-2.52704zM372.74892,351.08254h1.29111c1.10351,0 1.37939,0.38623 1.37939,1.2249c0,0.80556 -0.17656,1.2249 -1.35732,1.2249h-1.31318zM373.76415,347.71683c0.75039,0 0.93798,0.54072 0.93798,0.97109c0,0.54072 -0.29795,0.99316 -0.92695,0.99316h-1.01523v-1.96425z" fill="#c8c8c8"></path><path d="M386.07196,354.91172l-1.86493,-3.23328c1.02626,-0.33105 1.46767,-1.01523 1.46767,-2.27323v-0.4414c0,-1.79872 -0.96005,-2.54911 -3.01258,-2.54911h-2.14081v8.49703h1.52284v-2.99051h0.56279l1.68837,2.99051zM382.03311,350.51975v-2.7036h0.65107c1.18076,0 1.39042,0.41933 1.39042,1.2249v0.28691c0,0.80556 -0.30898,1.19179 -1.41249,1.19179z" fill="#c8c8c8"></path><path d="M390.90901,346.42573h-1.53388v8.49703h1.53388z" fill="#c8c8c8"></path><path d="M399.56421,353.5213h-3.27742v-7.1066h-1.53388v8.49703h4.8113z" fill="#c8c8c8"></path><path d="M407.71179,353.5213h-3.27742v-7.1066h-1.53388v8.49703h4.8113z" fill="#c8c8c8"></path><path d="M412.58195,346.42573h-1.53388v8.49703h1.53388z" fill="#c8c8c8"></path><path d="M419.61499,346.42573h-1.51181l-2.35048,8.48599h1.56698l0.4414,-1.50077h2.17391l0.43037,1.50077h1.56698zM418.13628,351.92121l0.70625,-3.145l0.70625,3.145z" fill="#c8c8c8"></path><path d="M430.4441,346.42573h-1.51181v2.00839l0.16553,3.58641l-2.49393,-5.5948h-1.51181v8.48599h1.51181v-2.16288l-0.13242,-3.22225l2.49393,5.38513h1.4787z" fill="#c8c8c8"></path><path d="M438.37098,352.28537c0,0.83867 -0.27588,1.30214 -1.37939,1.30214c-1.10351,0 -1.31318,-0.46347 -1.31318,-1.26904v-3.29949c0,-0.80556 0.20967,-1.26904 1.31318,-1.26904c1.18076,0 1.37939,0.46347 1.37939,1.29111h1.52284c0,-1.887 -0.8497,-2.63739 -2.90223,-2.63739c-2.05253,0 -2.83602,0.73935 -2.83602,2.53807v3.45399c0,1.75458 0.8166,2.53807 2.83602,2.53807c2.01942,0 2.90223,-0.78349 2.90223,-2.64842z" fill="#c8c8c8"></path><path d="M443.4508,346.41469v8.50806h5.04304v-1.39042h-3.5202v-2.24013h2.86913v-1.36835h-2.86913v-2.18495h3.36571v-1.32421z" fill="#c8c8c8"></path></g><g fill-rule="nonzero"><path d="M107.62722,330.26509v-49.5806h-6.12106v55.08956h21.42372v-5.50896z" fill="#c8c8c8"></path><path d="M129.35699,335.77404h5.96804v-14.9966c0,-3.06053 0.30605,-8.03389 1.53027,-15.07311l2.98402,-17.06246c0.38257,-2.2954 0.68862,-2.67796 1.37724,-2.67796c0.68862,0 0.99467,0.38257 1.37724,2.67796l2.98402,17.06246c1.22421,7.03922 1.53027,12.01258 1.53027,15.07311v14.9966h6.12106v-13.08377c0,-4.36126 -0.30605,-10.4058 -1.83632,-18.51621l-3.13704,-16.90943c-0.91816,-4.82034 -2.67796,-6.96271 -5.81501,-6.96271h-2.2954c-3.13704,0 -4.89685,2.14237 -5.81501,6.96271l-3.13704,16.90943c-1.53027,8.11041 -1.83632,14.15496 -1.83632,18.51621z" fill="#c8c8c8"></path><path d="M198.98406,280.68449h-5.96804v14.9966c0,3.06053 -0.30605,8.03389 -1.53027,15.07311l-2.98402,17.06246c-0.38257,2.2954 -0.68862,2.67796 -1.37724,2.67796c-0.68862,0 -0.99467,-0.38257 -1.37724,-2.67796l-2.98402,-17.06246c-1.22421,-7.03922 -1.53027,-12.01258 -1.53027,-15.07311v-14.9966h-6.12106v13.08377c0,4.36126 0.30605,10.4058 1.83632,18.51621l3.13704,16.90943c0.91816,4.82034 2.67796,6.96271 5.81501,6.96271h2.2954c3.13704,0 4.89685,-2.14237 5.81501,-6.96271l3.13704,-16.90943c1.53027,-8.11041 1.83632,-14.15496 1.83632,-18.51621z" fill="#c8c8c8"></path><path d="M208.62474,335.77404h6.12106v-55.08956h-6.12106z" fill="#c8c8c8"></path><path d="M231.57872,330.26509v-26.93267h11.47699v-5.50896h-11.47699v-11.63002h13.77239v-5.50896h-19.89345v55.08956h20.65858v-5.50896z" fill="#c8c8c8"></path><path d="M274.04358,330.26509v-26.93267h11.47699v-5.50896h-11.47699v-11.63002h13.77239v-5.50896h-19.89345v55.08956h20.65858v-5.50896z" fill="#c8c8c8"></path><path d="M297.07408,335.77404h6.12106v-49.5806h6.04455c2.9075,0 4.51428,1.53027 5.04988,7.42179c0.30605,3.4431 0.38257,7.42179 0.38257,11.5535v30.60531h6.12106v-30.83485c0,-4.28474 0,-9.02857 -0.45908,-13.2368c-0.84165,-7.88087 -4.0552,-11.01791 -9.87021,-11.01791h-13.38982z" fill="#c8c8c8"></path><path d="M344.35928,335.77404h6.12106v-49.5806h6.04455c2.9075,0 4.51428,1.53027 5.04988,7.42179c0.30605,3.4431 0.38257,7.42179 0.38257,11.5535v30.60531h6.12106v-30.83485c0,-4.28474 0,-9.02857 -0.45908,-13.2368c-0.84165,-7.88087 -4.0552,-11.01791 -9.87021,-11.01791h-13.38982z" fill="#c8c8c8"></path><path d="M401.89726,292.16148c-0.53559,-9.02857 -5.7385,-12.24212 -11.5535,-12.24212h-1.07119c-5.81501,0 -11.01791,3.21356 -11.5535,12.24212c-0.15303,2.98402 -0.15303,8.79903 -0.15303,12.54818v7.03922c0,3.74915 0,9.56416 0.15303,12.54818c0.53559,9.02857 5.7385,12.24212 11.5535,12.24212h1.07119c5.81501,0 11.01791,-3.21356 11.5535,-12.24212c0.15303,-2.98402 0.15303,-8.79903 0.15303,-12.54818v-7.03922c0,-3.74915 0,-9.56416 -0.15303,-12.54818zM395.92923,312.36098c0,2.98402 0,8.41646 -0.15303,11.17094c-0.30605,5.43244 -2.60145,7.34527 -5.43244,7.34527h-1.07119c-2.83099,0 -5.12639,-1.91283 -5.43244,-7.34527c-0.15303,-2.75448 -0.15303,-8.18692 -0.15303,-11.17094v-8.26343c0,-2.98402 0,-8.41646 0.15303,-11.17094c0.30605,-5.43244 2.60145,-7.34527 5.43244,-7.34527h1.07119c2.83099,0 5.12639,1.91283 5.43244,7.34527c0.15303,2.75448 0.15303,8.18692 0.15303,11.17094z" fill="#c8c8c8"></path><path d="M411.99701,335.77404h6.12106v-55.08956h-6.12106z" fill="#c8c8c8"></path><path d="M441.22508,335.77404h7.26876l-10.48232,-17.292c-1.98935,-3.29007 -2.44842,-4.36126 -2.44842,-5.43244c0,-0.99467 0.38257,-1.75981 1.98935,-3.36658l2.44842,-2.52494c4.66731,-4.82034 5.89152,-7.4983 5.89152,-14.46101c0,-7.80435 -2.60145,-12.01258 -10.86488,-12.01258h-8.95205v5.50896h7.4983c4.20823,0 6.19757,1.22421 6.19757,7.72784c0,4.13172 -1.1477,6.73317 -3.59612,9.18159l-3.51961,3.51961c-2.52494,2.52494 -3.29007,4.28474 -3.29007,6.58014c0,1.75981 0.45908,3.36658 1.98935,5.96804z" fill="#c8c8c8"></path></g><g fill-rule="evenodd"><path d="M352.72739,231.59109c-10.73197,0 -19.43185,-8.69988 -19.43185,-19.43185v-14.57389c0,-18.78088 -15.22485,-34.00573 -34.00573,-34.00573c-18.78088,0 -34.00573,15.22485 -34.00573,34.00573v19.43185c0,8.04891 -6.52497,14.57389 -14.57389,14.57389c-8.04891,0 -14.57389,-6.52497 -14.57389,-14.57389v-63.1535c0,-21.46393 -17.39976,-38.86369 -38.86369,-38.86369v19.43185c10.73197,0 19.43185,8.69988 19.43185,19.43185v63.1535c0,18.78088 15.22485,34.00573 34.00573,34.00573c18.78088,0 34.00573,-15.22485 34.00573,-34.00573v-19.43185c0,-8.04891 6.52497,-14.57389 14.57389,-14.57389c8.04891,0 14.57389,6.52497 14.57389,14.57389v14.57389c0,21.46393 17.39977,38.86369 38.86369,38.86369zM313.86369,129.57389c0,0.23853 -0.00583,0.47689 -0.01749,0.71509c-0.01182,0.2382 -0.02939,0.476 -0.05271,0.71339c-0.02332,0.23739 -0.05247,0.47406 -0.08744,0.70999c-0.03514,0.23593 -0.07595,0.47082 -0.12242,0.70465c-0.04647,0.23399 -0.0987,0.46669 -0.15667,0.69809c-0.05797,0.2314 -0.12161,0.46118 -0.19092,0.68935c-0.06915,0.22832 -0.14387,0.45471 -0.2242,0.67914c-0.08048,0.2246 -0.16631,0.4471 -0.25747,0.66748c-0.09133,0.22039 -0.188,0.43835 -0.29002,0.65388c-0.10185,0.21569 -0.20906,0.42871 -0.3216,0.63907c-0.11238,0.21035 -0.22986,0.41778 -0.35245,0.62231c-0.12275,0.20468 -0.25034,0.40613 -0.38281,0.60433c-0.13246,0.19837 -0.26978,0.39333 -0.41196,0.5849c-0.14202,0.19157 -0.28864,0.37957 -0.43989,0.56401c-0.15141,0.18428 -0.30719,0.36484 -0.46734,0.54167c-0.16015,0.17667 -0.32459,0.34929 -0.49333,0.51786c-0.16857,0.16873 -0.34119,0.33318 -0.51786,0.49333c-0.17683,0.16015 -0.35738,0.31593 -0.54167,0.46734c-0.18444,0.15124 -0.37245,0.29787 -0.56401,0.43989c-0.19157,0.14218 -0.38653,0.27949 -0.5849,0.41196c-0.1982,0.13263 -0.39965,0.26022 -0.60433,0.38281c-0.20452,0.12258 -0.41196,0.24006 -0.62231,0.35245c-0.21035,0.11254 -0.42337,0.21974 -0.63907,0.3216c-0.21553,0.10202 -0.43349,0.19869 -0.65388,0.29002c-0.22039,0.09117 -0.44288,0.17699 -0.66748,0.25747c-0.22444,0.08032 -0.45082,0.15505 -0.67914,0.2242c-0.22816,0.06931 -0.45795,0.13294 -0.68935,0.19091c-0.2314,0.05797 -0.46409,0.11019 -0.69809,0.15667c-0.23383,0.04647 -0.46871,0.08728 -0.70465,0.12242c-0.23593,0.03498 -0.4726,0.06413 -0.70999,0.08744c-0.23739,0.02332 -0.47519,0.04088 -0.71339,0.05271c-0.2382,0.01166 -0.47656,0.01749 -0.71509,0.01749c-0.23852,0 -0.47689,-0.00583 -0.71509,-0.01749c-0.2382,-0.01182 -0.476,-0.02939 -0.71339,-0.05271c-0.23739,-0.02332 -0.47406,-0.05247 -0.70999,-0.08744c-0.23593,-0.03514 -0.47082,-0.07595 -0.70465,-0.12242c-0.23399,-0.04647 -0.46669,-0.0987 -0.69809,-0.15667c-0.2314,-0.05797 -0.46118,-0.12161 -0.68935,-0.19091c-0.22832,-0.06915 -0.45471,-0.14387 -0.67914,-0.2242c-0.2246,-0.08048 -0.4471,-0.16631 -0.66748,-0.25747c-0.22039,-0.09133 -0.43835,-0.18801 -0.65388,-0.29002c-0.21569,-0.10185 -0.42871,-0.20906 -0.63907,-0.3216c-0.21035,-0.11238 -0.41778,-0.22986 -0.6223,-0.35245c-0.20468,-0.12258 -0.40613,-0.25018 -0.60433,-0.38281c-0.19837,-0.13246 -0.39333,-0.26978 -0.5849,-0.41196c-0.19157,-0.14202 -0.37957,-0.28864 -0.56401,-0.43989c-0.18428,-0.15141 -0.36484,-0.30719 -0.54167,-0.46734c-0.17667,-0.16015 -0.34928,-0.32459 -0.51786,-0.49333c-0.16873,-0.16858 -0.33318,-0.34119 -0.49333,-0.51786c-0.16015,-0.17683 -0.31593,-0.35738 -0.46734,-0.54167c-0.15124,-0.18444 -0.29787,-0.37245 -0.43989,-0.56401c-0.14218,-0.19157 -0.27949,-0.38653 -0.41196,-0.5849c-0.13262,-0.1982 -0.26022,-0.39965 -0.38281,-0.60433c-0.12258,-0.20452 -0.24006,-0.41196 -0.35245,-0.62231c-0.11254,-0.21035 -0.21974,-0.42337 -0.3216,-0.63907c-0.10202,-0.21553 -0.19869,-0.43349 -0.29002,-0.65388c-0.09117,-0.22039 -0.17699,-0.44288 -0.25747,-0.66748c-0.08032,-0.22444 -0.15505,-0.45082 -0.2242,-0.67914c-0.06931,-0.22816 -0.13294,-0.45795 -0.19092,-0.68935c-0.05797,-0.2314 -0.11019,-0.46409 -0.15667,-0.69809c-0.04647,-0.23383 -0.08728,-0.46871 -0.12242,-0.70465c-0.03498,-0.23593 -0.06413,-0.4726 -0.08744,-0.70999c-0.02332,-0.23739 -0.04088,-0.47519 -0.05271,-0.71339c-0.01166,-0.2382 -0.01749,-0.47656 -0.01749,-0.71509c0,-0.23853 0.00583,-0.47689 0.01749,-0.71509c0.01182,-0.2382 0.02939,-0.476 0.05271,-0.71339c0.02332,-0.23739 0.05247,-0.47406 0.08744,-0.70999c0.03514,-0.23593 0.07595,-0.47082 0.12242,-0.70465c0.04647,-0.23399 0.0987,-0.46669 0.15667,-0.69809c0.05797,-0.2314 0.12161,-0.46118 0.19092,-0.68935c0.06915,-0.22832 0.14387,-0.45471 0.2242,-0.67914c0.08048,-0.2246 0.16631,-0.4471 0.25747,-0.66748c0.09133,-0.22039 0.18801,-0.43835 0.29002,-0.65388c0.10185,-0.21569 0.20906,-0.42871 0.3216,-0.63907c0.11238,-0.21035 0.22986,-0.41778 0.35245,-0.62231c0.12258,-0.20468 0.25018,-0.40613 0.38281,-0.60433c0.13246,-0.19837 0.26978,-0.39333 0.41196,-0.5849c0.14202,-0.19157 0.28864,-0.37957 0.43989,-0.56401c0.15141,-0.18428 0.30719,-0.36484 0.46734,-0.54167c0.16015,-0.17667 0.32459,-0.34929 0.49333,-0.51786c0.16857,-0.16873 0.34119,-0.33318 0.51786,-0.49333c0.17683,-0.16015 0.35738,-0.31593 0.54167,-0.46734c0.18444,-0.15124 0.37245,-0.29787 0.56401,-0.43989c0.19157,-0.14218 0.38653,-0.27949 0.5849,-0.41196c0.1982,-0.13262 0.39965,-0.26022 0.60433,-0.38281c0.20452,-0.12258 0.41196,-0.24006 0.6223,-0.35245c0.21035,-0.11254 0.42337,-0.21974 0.63907,-0.3216c0.21553,-0.10202 0.43349,-0.19869 0.65388,-0.29002c0.22039,-0.09117 0.44288,-0.17699 0.66748,-0.25747c0.22444,-0.08032 0.45082,-0.15505 0.67914,-0.2242c0.22816,-0.06931 0.45795,-0.13294 0.68935,-0.19092c0.2314,-0.05797 0.46409,-0.11019 0.69809,-0.15667c0.23383,-0.04647 0.46871,-0.08728 0.70465,-0.12242c0.23593,-0.03498 0.4726,-0.06413 0.70999,-0.08744c0.23739,-0.02332 0.47519,-0.04088 0.71339,-0.05271c0.2382,-0.01166 0.47657,-0.01749 0.71509,-0.01749c0.23852,0 0.47689,0.00583 0.71509,0.01749c0.2382,0.01182 0.476,0.02939 0.71339,0.05271c0.23739,0.02332 0.47406,0.05247 0.70999,0.08744c0.23593,0.03514 0.47082,0.07595 0.70465,0.12242c0.23399,0.04647 0.46669,0.0987 0.69809,0.15667c0.2314,0.05797 0.46118,0.12161 0.68935,0.19092c0.22832,0.06915 0.45471,0.14387 0.67914,0.2242c0.2246,0.08048 0.4471,0.16631 0.66748,0.25747c0.22039,0.09133 0.43835,0.188 0.65388,0.29002c0.21569,0.10185 0.42871,0.20906 0.63907,0.3216c0.21035,0.11238 0.41778,0.22986 0.62231,0.35245c0.20468,0.12258 0.40613,0.25019 0.60433,0.38281c0.19837,0.13246 0.39333,0.26978 0.5849,0.41196c0.19157,0.14202 0.37957,0.28864 0.56401,0.43989c0.18428,0.15141 0.36484,0.30719 0.54167,0.46734c0.17667,0.16015 0.34928,0.32459 0.51786,0.49333c0.16873,0.16857 0.33318,0.34119 0.49333,0.51786c0.16015,0.17683 0.31593,0.35738 0.46734,0.54167c0.15124,0.18444 0.29787,0.37245 0.43989,0.56401c0.14218,0.19157 0.27949,0.38653 0.41196,0.5849c0.13246,0.1982 0.26006,0.39965 0.38281,0.60433c0.12258,0.20452 0.24006,0.41196 0.35245,0.62231c0.11254,0.21035 0.21974,0.42337 0.3216,0.63907c0.10202,0.21553 0.19869,0.43349 0.29002,0.65388c0.09117,0.22039 0.17699,0.44288 0.25747,0.66748c0.08032,0.22444 0.15505,0.45082 0.2242,0.67914c0.06931,0.22816 0.13294,0.45795 0.19092,0.68935c0.05797,0.2314 0.11019,0.46409 0.15667,0.69809c0.04647,0.23383 0.08728,0.46871 0.12242,0.70465c0.03498,0.23593 0.06413,0.4726 0.08744,0.70999c0.02332,0.23739 0.04088,0.47519 0.05271,0.71339c0.01166,0.2382 0.01749,0.47656 0.01749,0.71509z" fill="#c8c8c8"></path></g></g></g></svg>